<svg width="142" height="62" viewBox="0 0 142 62" fill="none" xmlns="http://www.w3.org/2000/svg">
<path d="M67.9176 37.6562H64.1847C64.1165 37.1733 63.9773 36.7443 63.767 36.3693C63.5568 35.9886 63.2869 35.6648 62.9574 35.3977C62.6278 35.1307 62.2472 34.9261 61.8153 34.7841C61.3892 34.642 60.9261 34.571 60.4261 34.571C59.5227 34.571 58.7358 34.7955 58.0653 35.2443C57.3949 35.6875 56.875 36.3352 56.5057 37.1875C56.1364 38.0341 55.9517 39.0625 55.9517 40.2727C55.9517 41.517 56.1364 42.5625 56.5057 43.4091C56.8807 44.2557 57.4034 44.8949 58.0739 45.3267C58.7443 45.7585 59.5199 45.9744 60.4006 45.9744C60.8949 45.9744 61.3523 45.9091 61.7727 45.7784C62.1989 45.6477 62.5767 45.4574 62.9062 45.2074C63.2358 44.9517 63.5085 44.642 63.7244 44.2784C63.946 43.9148 64.0994 43.5 64.1847 43.0341L67.9176 43.0511C67.821 43.8523 67.5795 44.625 67.1932 45.3693C66.8125 46.108 66.2983 46.7699 65.6506 47.3551C65.0085 47.9347 64.2415 48.3949 63.3494 48.7358C62.4631 49.071 61.4602 49.2386 60.3409 49.2386C58.7841 49.2386 57.392 48.8864 56.1648 48.1818C54.9432 47.4773 53.9773 46.4574 53.267 45.1222C52.5625 43.7869 52.2102 42.1705 52.2102 40.2727C52.2102 38.3693 52.5682 36.75 53.2841 35.4148C54 34.0795 54.9716 33.0625 56.1989 32.3636C57.4261 31.6591 58.8068 31.3068 60.3409 31.3068C61.3523 31.3068 62.2898 31.4489 63.1534 31.733C64.0227 32.017 64.7926 32.4318 65.4631 32.9773C66.1335 33.517 66.679 34.179 67.0994 34.9631C67.5256 35.7472 67.7983 36.6449 67.9176 37.6562ZM119.469 34.5881V31.5455H133.805V34.5881H128.461V49H124.813V34.5881H119.469ZM139.856 31.5455V49H136.165V31.5455H139.856Z" fill="black"/>
<path d="M70.5639 49V31.5455H77.5526C78.8366 31.5455 79.9077 31.7358 80.7656 32.1165C81.6236 32.4972 82.2685 33.0256 82.7003 33.7017C83.1321 34.3722 83.348 35.1449 83.348 36.0199C83.348 36.7017 83.2116 37.3011 82.9389 37.8182C82.6662 38.3295 82.2912 38.75 81.8139 39.0795C81.3423 39.4034 80.8026 39.6335 80.1946 39.7699V39.9403C80.8594 39.9687 81.4815 40.1562 82.0611 40.5028C82.6463 40.8494 83.1207 41.3352 83.4844 41.9602C83.848 42.5795 84.0298 43.3182 84.0298 44.1761C84.0298 45.1023 83.7997 45.929 83.3395 46.6562C82.8849 47.3778 82.2116 47.9489 81.3196 48.3693C80.4276 48.7898 79.3281 49 78.0213 49H70.5639ZM74.2543 45.983H77.2628C78.2912 45.983 79.0412 45.7869 79.5128 45.3949C79.9844 44.9972 80.2202 44.4687 80.2202 43.8097C80.2202 43.3267 80.1037 42.9006 79.8707 42.5312C79.6378 42.1619 79.3054 41.8722 78.8736 41.6619C78.4474 41.4517 77.9389 41.3466 77.348 41.3466H74.2543V45.983ZM74.2543 38.8494H76.9901C77.4957 38.8494 77.9446 38.7614 78.3366 38.5852C78.7344 38.4034 79.0469 38.1477 79.2741 37.8182C79.5071 37.4886 79.6236 37.0938 79.6236 36.6335C79.6236 36.0028 79.3991 35.4943 78.9503 35.108C78.5071 34.7216 77.8764 34.5284 77.0582 34.5284H74.2543V38.8494ZM89.4396 49H85.4851L91.5107 31.5455H96.2663L102.283 49H98.3288L93.9567 35.5341H93.8203L89.4396 49ZM89.1925 42.1392H98.5334V45.0199H89.1925V42.1392ZM104.384 49V31.5455H111.271C112.589 31.5455 113.714 31.7812 114.646 32.2528C115.583 32.7187 116.296 33.3807 116.785 34.2386C117.279 35.0909 117.526 36.0937 117.526 37.2472C117.526 38.4062 117.276 39.4034 116.776 40.2386C116.276 41.0682 115.552 41.7045 114.603 42.1477C113.66 42.5909 112.518 42.8125 111.177 42.8125H106.566V39.8466H110.58C111.285 39.8466 111.87 39.75 112.336 39.5568C112.802 39.3636 113.148 39.0739 113.376 38.6875C113.609 38.3011 113.725 37.821 113.725 37.2472C113.725 36.6676 113.609 36.179 113.376 35.7812C113.148 35.3835 112.799 35.0824 112.327 34.8778C111.862 34.6676 111.273 34.5625 110.563 34.5625H108.075V49H104.384ZM113.81 41.0568L118.148 49H114.075L109.83 41.0568H113.81Z" fill="#5D63EC"/>
<path d="M13.3832 25.8794C13.7099 26.068 14.126 25.9822 14.3514 25.6798L24.7227 11.765C25.2462 11.0625 26.1902 10.849 27.0633 10.9215C27.5839 10.9647 28.1121 10.9146 28.6479 10.771C29.9753 10.4153 30.9754 9.6548 31.6483 8.48935C32.3215 7.32329 32.4803 6.07658 32.1246 4.74924C31.769 3.42189 31.0081 2.4216 29.842 1.74838C28.6766 1.07551 27.4302 0.916904 26.1028 1.27257C24.7755 1.62823 23.7751 2.38885 23.1018 3.55442C22.429 4.72035 22.2705 5.96699 22.6262 7.29434C22.7697 7.83015 22.9904 8.31267 23.2881 8.74191C23.7583 9.41976 23.9187 10.3547 23.4257 11.0161L13.1588 24.7909C12.8928 25.1478 12.9977 25.6568 13.3832 25.8794ZM28.2564 9.30971C27.3431 9.55443 26.481 9.44294 25.6702 8.97524C24.8598 8.50691 24.3322 7.8161 24.0875 6.90278C23.8427 5.98947 23.9542 5.12742 24.4219 4.31661C24.8903 3.50617 25.5811 2.97859 26.4944 2.73386C27.4077 2.48914 28.2698 2.60064 29.0806 3.06834C29.891 3.53666 30.4186 4.22748 30.6633 5.14079C30.908 6.0541 30.7965 6.91616 30.3288 7.72696C29.8605 8.53741 29.1697 9.06499 28.2564 9.30971Z" fill="black"/>
<path d="M0.425569 22.172C0.197355 19.774 2.08309 17.7003 4.49189 17.7003H24.2117C26.5801 17.7003 28.452 19.7081 28.2864 22.0707L25.7561 58.1522C25.6061 60.292 23.8265 61.9511 21.6815 61.9511H7.92576C5.81976 61.9511 4.05896 60.35 3.85944 58.2534L0.425569 22.172Z" fill="#6066FD"/>
</svg>
